#!OML:ASF Y:\EmotionMaleHayes\Project 1\Capture day 1\Session 1\Male1.ASF
:FULLY-SPECIFIED
:DEGREES
97
root 6.50894 15.4014 0.759315 63.3637 87.1788 77.4749
lowerback 15.2153 1.59521 -3.86354
upperback 6.53254 1.9005 -1.03078
thorax -1.68035 1.05479 0.78538
lowerneck -24.3233 0.53818 2.09578
upperneck 30.87 0.0664972 0.850551
head 14.7887 0.579468 0.0515006
rclavicle -3.32964e-015 2.20651e-014
rhumerus 39.5724 16.2562 -46.3679
rradius 45.1561
rwrist -1.68694
rhand 18.4149 -35.7786
rfingers 7.12502
rthumb 43.0557 -60.0048
lclavicle -3.32964e-015 2.20651e-014
lhumerus 42.693 -19.7035 39.7234
lradius 44.9403
lwrist -1.5865
lhand 19.1429 -18.9186
lfingers 7.12502
lthumb 43.7358 5.06215
rfemur -3.94504 -7.63706 3.07505
rtibia 53.8768
rfoot -30.987 -5.96331
rtoes -15.1221
lfemur 1.14813 12.2147 -5.23474
ltibia 52.1221
lfoot -30.8496 -1.47067
ltoes -14.7467
98
root 6.51032 15.4001 0.757464 64.4399 87.0694 78.5453
lowerback 15.1302 1.60737 -3.93951
upperback 6.56708 1.91242 -1.08796
thorax -1.59897 1.05977 0.769444
lowerneck -24.3412 0.511229 2.01084
upperneck 30.8485 -0.0116665 1.05428
head 14.783 0.566296 0.134984
rclavicle 1.38901e-014 -5.96354e-016
rhumerus 39.5702 16.1657 -46.3987
rradius 45.1902
rwrist -1.64735
rhand 18.424 -35.7839
rfingers 7.12502
rthumb 43.0642 -60.0072
lclavicle 1.38901e-014 -5.96354e-016
lhumerus 42.719 -19.6482 39.8118
lradius 44.956
lwrist -1.71913
lhand 19.0977 -18.8491
lfingers 7.12502
lthumb 43.6936 5.14715
rfemur -3.9383 -7.64238 2.90204
rtibia 53.8684
rfoot -31.0169 -5.85916
rtoes -15.119
lfemur 1.18391 12.1057 -5.46403
ltibia 52.0361
lfoot -30.868 -1.42359
ltoes -14.6067
99
root 6.5093 15.3979 0.75667 64.5242 87.0355 78.5992
lowerback 15.1346 1.6236 -3.89394
upperback 6.5278 1.93522 -1.14324
thorax -1.64086 1.07285 0.681376
lowerneck -24.2829 0.481834 1.95799
upperneck 30.7953 -0.101865 1.25435
head 14.7468 0.551237 0.208553
rclavicle 4.91992e-015 -1.25234e-014
rhumerus 39.4552 16.1218 -46.473
rradius 45.2205
rwrist -1.57965
rhand 18.4295 -35.7455
rfingers 7.12502
rthumb 43.0693 -59.9669
lclavicle 4.91992e-015 -1.25234e-014
lhumerus 42.7086 -19.6471 39.959
lradius 44.9431
lwrist -1.87964
lhand 19.0847 -18.8806
lfingers 7.12502
lthumb 43.6814 5.12008
rfemur -3.99256 -7.62232 2.86668
rtibia 53.8928
rfoot -31.0587 -5.72059
rtoes -14.8524
lfemur 1.1476 12.0962 -5.54366
ltibia 52.0271
lfoot -30.8691 -1.17057
ltoes -15.5949
100
root 6.50613 15.3939 0.75652 64.0575 87.0975 78.1297
lowerback 15.1835 1.62502 -3.79217
upperback 6.51093 1.94744 -1.13586
thorax -1.683 1.08091 0.628096
lowerneck -24.38 0.437453 1.94955
upperneck 30.8452 -0.17188 1.26586
head 14.7904 0.523181 0.201984
rclavicle -7.52897e-015 2.38542e-015
rhumerus 39.4324 16.1028 -46.49
rradius 45.2436
rwrist -1.5943
rhand 18.4297 -35.7351
rfingers 7.12502
rthumb 43.0695 -59.9565
lclavicle -7.52897e-015 2.38542e-015
lhumerus 42.7306 -19.6671 39.969
lradius 44.9499
lwrist -1.90019
lhand 18.9758 -18.8735
lfingers 7.12502
lthumb 43.5798 5.1643
rfemur -4.04048 -7.62345 2.96316
rtibia 53.9309
rfoot -31.0556 -5.8285
rtoes -14.9295
lfemur 1.07703 12.1542 -5.4421
ltibia 52.117
lfoot -30.8725 -1.02557
ltoes -16.3265
101
root 6.50437 15.3914 0.755735 63.6197 87.0937 77.7022
lowerback 15.1594 1.64032 -3.80249
upperback 6.54898 1.97136 -1.10585
thorax -1.63219 1.09201 0.662791
lowerneck -24.4751 0.403997 1.95297
upperneck 30.8912 -0.186176 1.15109
head 14.8312 0.500622 0.151689
rclavicle 1.10325e-014 -6.95746e-015
rhumerus 39.4858 16.0719 -46.4284
rradius 45.2921
rwrist -1.61897
rhand 18.4814 -35.8343
rfingers 7.12502
rthumb 43.1178 -60.0385
lclavicle 1.10325e-014 -6.95746e-015
lhumerus 42.7889 -19.6548 39.919
lradius 44.9592
lwrist -1.81532
lhand 18.965 -18.998
lfingers 7.12502
lthumb 43.5698 5.04344
rfemur -4.05409 -7.60041 2.9773
rtibia 53.9358
rfoot -30.9942 -5.90929
rtoes -14.9162
lfemur 1.04339 12.2033 -5.42166
ltibia 52.2
lfoot -30.8833 -1.07064
ltoes -16.3118
102
root 6.50233 15.3902 0.755688 63.5929 87.0464 77.6594
lowerback 15.153 1.6555 -3.84151
upperback 6.54842 1.98621 -1.10977
thorax -1.63076 1.09882 0.678337
lowerneck -24.4215 0.403526 1.95774
upperneck 30.8314 -0.162907 1.07988
head 14.792 0.498723 0.125041
rclavicle -4.29872e-015 -9.14409e-015
rhumerus 39.4733 16.0717 -46.3673
rradius 45.3492
rwrist -1.58924
rhand 18.5767 -35.9502
rfingers 7.12502
rthumb 43.2069 -60.1226
lclavicle -4.29872e-015 -9.14409e-015
lhumerus 42.7977 -19.6169 39.9913
lradius 44.9016
lwrist -1.78676
lhand 19.1348 -19.3516
lfingers 7.12502
lthumb 43.7282 4.63192
rfemur -4.12171 -7.54565 2.95876
rtibia 54.0156
rfoot -31.0197 -5.89541
rtoes -14.7617
lfemur 0.984779 12.2095 -5.48601
ltibia 52.2782
lfoot -30.9074 -1.06069
ltoes -16.3616
103
root 6.50096 15.388 0.754413 63.6262 87.0627 77.6775
lowerback 15.2148 1.66369 -3.73994
upperback 6.49308 2.0025 -1.15195
thorax -1.71865 1.10983 0.571443
lowerneck -24.414 0.389958 2.01018
upperneck 30.8337 -0.20545 1.08343
head 14.7915 0.488067 0.109334
rclavicle -7.47927e-015 1.68967e-014
rhumerus 39.3993 16.0358 -46.4683
rradius 45.3414
rwrist -1.4955
rhand 18.5859 -36.0889
rfingers 7.12502
rthumb 43.2155 -60.2582
lclavicle -7.47927e-015 1.68967e-014
lhumerus 42.8235 -19.7089 39.9977
lradius 44.8588
lwrist -1.7981
lhand 19.2546 -19.6051
lfingers 7.12502
lthumb 43.8401 4.33718
rfemur -4.21624 -7.57624 2.97726
rtibia 54.1736
rfoot -31.1244 -5.89914
rtoes -14.8577
lfemur 0.927363 12.1548 -5.51262
ltibia 52.3252
lfoot -30.9185 -1.03388
ltoes -16.179
104
root 6.50161 15.3862 0.751387 63.2698 87.017 77.298
lowerback 15.214 1.68028 -3.69656
upperback 6.45766 2.02611 -1.197
thorax -1.75386 1.12285 0.495323
lowerneck -24.4047 0.397512 2.0537
upperneck 30.8218 -0.214426 1.08913
head 14.7842 0.490327 0.10242
rclavicle 8.57259e-015 -2.0276e-014
rhumerus 39.3017 16.0015 -46.5886
rradius 45.3991
rwrist -1.44695
rhand 18.4754 -36.155
rfingers 7.12502
rthumb 43.1122 -60.3612
lclavicle 8.57259e-015 -2.0276e-014
lhumerus 42.8353 -19.8265 39.8722
lradius 44.9427
lwrist -1.85603
lhand 19.2665 -19.5885
lfingers 7.12502
lthumb 43.8511 4.34966
rfemur -4.29346 -7.60485 2.90597
rtibia 54.3024
rfoot -31.202 -5.80626
rtoes -14.6558
lfemur 0.906183 12.1455 -5.59991
ltibia 52.3337
lfoot -30.8994 -1.07038
ltoes -15.8006
105
root 6.50299 15.3865 0.749063 63.43 86.9218 77.4176
lowerback 15.1478 1.67685 -3.78421
upperback 6.46467 2.01245 -1.21043
thorax -1.7126 1.11414 0.535016
lowerneck -24.4443 0.419474 1.98142
upperneck 30.8213 -0.178015 1.15625
head 14.793 0.506617 0.149705
rclavicle -1.54058e-015 7.35503e-015
rhumerus 39.3133 16.0755 -46.4767
rradius 45.4658
rwrist -1.44282
rhand 18.4527 -36.0845
rfingers 7.12502
rthumb 43.091 -60.2982
lclavicle -1.54058e-015 7.35503e-015
lhumerus 42.7503 -19.813 39.8103
lradius 45.0793
lwrist -1.86843
lhand 19.241 -19.4504
lfingers 7.12502
lthumb 43.8274 4.49652
rfemur -4.32638 -7.56913 2.79726
rtibia 54.3181
rfoot -31.212 -5.71487
rtoes -14.2935
lfemur 0.856131 12.1858 -5.73704
ltibia 52.3629
lfoot -30.9331 -0.99302
ltoes -16.1177
